<svg viewBox="0 0 36.1272 35.9949" fill="none" xmlns="http://www.w3.org/2000/svg">
<g id="Group">
<path id="Vector" d="M36.1272 18.0636C36.1272 8.08742 28.0398 6.10352e-05 18.0636 6.10352e-05C8.08736 6.10352e-05 0 8.08742 0 18.0636C0 26.5351 5.83201 33.6433 13.6999 35.5953V23.5836H9.975V18.0636H13.6999V15.6851C13.6999 9.53684 16.4822 6.68713 22.5184 6.68713C23.6627 6.68713 25.6374 6.91148 26.4452 7.1359V12.1398C26.0188 12.0949 25.2783 12.0725 24.3583 12.0725C21.3964 12.0725 20.252 13.1944 20.252 16.1115V18.0636H26.1522L25.1386 23.5836H20.252V35.9949C29.196 34.9147 36.1272 27.2991 36.1272 18.0636Z" fill="var(--fill-0, white)"/>
</g>
</svg>
