<svg viewBox="0 0 35.001 35" fill="none" xmlns="http://www.w3.org/2000/svg">
<g id="google">
<path id="Union" d="M17.8564 2.28882e-05C22.6777 2.28882e-05 26.7057 1.73055 29.8008 4.54983L24.7617 9.37209C23.472 8.1859 21.2096 6.76662 17.8564 6.76662C13.1352 6.76675 9.12692 9.81802 7.67773 14.0362L7.67871 14.0391C7.3216 15.1279 7.10352 16.2944 7.10352 17.5C7.10352 18.7054 7.3213 19.8721 7.69824 20.961L7.83887 21.3535C9.37737 25.3685 13.282 28.2333 17.8564 28.2334C20.515 28.2334 22.539 27.5139 24.0469 26.4834L24.0479 26.4844L24.0488 26.4834C26.4296 24.8503 27.5007 22.4196 27.6992 20.8057H17.8584V14.3106H34.624C34.8819 15.3994 35.001 16.4498 35.001 17.8887C35.001 23.2164 33.0565 27.708 29.6836 30.7608L29.6807 30.7598L29.6816 30.7608C26.7252 33.444 22.6778 35 17.8564 35C11.0905 34.9999 5.21849 31.3135 2.18848 25.8858L1.9043 25.3555L1.68359 24.9072C0.61012 22.6496 8.08647e-06 20.1432 0 17.5C0 14.8569 0.610171 12.3504 1.68359 10.0928L1.9043 9.64455C4.84074 3.92802 10.8724 0.000132651 17.8564 2.28882e-05Z" fill="var(--fill-0, white)"/>
</g>
</svg>
