<svg viewBox="0 0 36 36.0002" fill="none" xmlns="http://www.w3.org/2000/svg">
<path id="Vector" d="M10.5453 0.125889C8.63004 0.21625 7.32214 0.521893 6.17877 0.971178C4.99544 1.43234 3.99247 2.05119 2.99454 3.05272C1.99661 4.05425 1.38208 5.05794 0.924159 6.24307C0.480994 7.38896 0.180751 8.69794 0.0961502 10.6142C0.0115493 12.5305 -0.00717089 13.1465 0.00218921 18.0346C0.0115493 22.9228 0.0331495 23.5355 0.12603 25.4557C0.217471 27.3706 0.522034 28.6781 0.971319 29.8219C1.4332 31.0052 2.05133 32.0078 3.05322 33.0061C4.05511 34.0044 5.05808 34.6175 6.24609 35.0761C7.3909 35.5186 8.70024 35.8203 10.6162 35.9041C12.5321 35.988 13.1488 36.0075 18.0355 35.9981C22.9222 35.9887 23.5374 35.9671 25.4573 35.8761C27.3772 35.785 28.6779 35.4783 29.822 35.0311C31.0053 34.5682 32.0087 33.9511 33.0062 32.9489C34.0038 31.9466 34.618 30.9422 35.0755 29.7564C35.5191 28.6115 35.8204 27.3022 35.9036 25.3877C35.9874 23.4664 36.0072 22.8529 35.9979 17.9655C35.9885 13.0781 35.9666 12.4654 35.8755 10.5458C35.7844 8.6263 35.4795 7.32272 35.0305 6.17827C34.5679 4.99494 33.9505 3.99305 32.949 2.99404C31.9475 1.99503 30.9423 1.38122 29.7568 0.924737C28.6113 0.481573 27.3027 0.17953 25.3868 0.0967287C23.4708 0.0139278 22.8541 -0.00731237 17.9657 0.00204772C13.0772 0.0114078 12.4652 0.032288 10.5453 0.125889ZM10.7555 32.6659C9.00048 32.5896 8.04755 32.298 7.4125 32.0539C6.57154 31.7299 5.97249 31.3382 5.3396 30.7114C4.70672 30.0847 4.31791 29.4835 3.98959 28.6443C3.74299 28.0093 3.44598 27.0574 3.3639 25.3024C3.27462 23.4055 3.2559 22.836 3.24546 18.0303C3.23502 13.2246 3.25338 12.6558 3.33654 10.7582C3.41142 9.00466 3.70483 8.05065 3.94855 7.41596C4.27255 6.57392 4.6628 5.97595 5.291 5.34342C5.91921 4.7109 6.51861 4.32137 7.3585 3.99305C7.99283 3.74537 8.94468 3.45088 10.699 3.36736C12.5973 3.27736 13.1661 3.25936 17.9711 3.24892C22.776 3.23848 23.3463 3.25648 25.2453 3.34C26.9989 3.41632 27.9532 3.70685 28.5872 3.95201C29.4285 4.27601 30.0272 4.66518 30.6597 5.29446C31.2923 5.92375 31.6821 6.52099 32.0105 7.36268C32.2585 7.99521 32.553 8.9467 32.6358 10.7021C32.7262 12.6004 32.7467 13.1695 32.7553 17.9742C32.764 22.7788 32.747 23.3494 32.6639 25.2462C32.5872 27.0012 32.2963 27.9545 32.0519 28.5903C31.7279 29.4309 31.3373 30.0303 30.7087 30.6625C30.0801 31.2946 29.4814 31.6842 28.6412 32.0125C28.0076 32.2598 27.0547 32.555 25.3018 32.6385C23.4035 32.7278 22.8347 32.7465 18.0279 32.757C13.2212 32.7674 12.6542 32.748 10.7559 32.6659M25.4296 8.37969C25.4303 8.80694 25.5577 9.22437 25.7957 9.5792C26.0337 9.93404 26.3715 10.2103 26.7665 10.3731C27.1615 10.5359 27.5959 10.5779 28.0148 10.4938C28.4337 10.4097 28.8182 10.2033 29.1198 9.90065C29.4213 9.59799 29.6264 9.2127 29.7089 8.79352C29.7915 8.37433 29.7479 7.94007 29.5836 7.54566C29.4194 7.15126 29.1419 6.81442 28.7862 6.57775C28.4304 6.34108 28.0125 6.21522 27.5853 6.21607C27.0126 6.21722 26.4637 6.44579 26.0595 6.85153C25.6552 7.25726 25.4286 7.80694 25.4296 8.37969ZM8.75784 18.0181C8.76792 23.1229 12.9137 27.2518 18.0175 27.2421C23.1213 27.2324 27.253 23.0869 27.2433 17.9821C27.2336 12.8772 23.0867 8.74726 17.9822 8.75734C12.8777 8.76742 8.74812 12.9139 8.75784 18.0181ZM12 18.0116C11.9977 16.8249 12.3473 15.6641 13.0046 14.6761C13.662 13.6881 14.5976 12.9171 15.6931 12.4608C16.7886 12.0045 17.9947 11.8833 19.1591 12.1125C20.3235 12.3417 21.3938 12.9111 22.2346 13.7486C23.0754 14.586 23.6489 15.654 23.8828 16.8175C24.1166 17.981 24.0001 19.1876 23.5482 20.2849C23.0962 21.3822 22.329 22.3208 21.3436 22.9821C20.3582 23.6433 19.1988 23.9975 18.0121 23.9999C17.2241 24.0015 16.4435 23.848 15.7149 23.5479C14.9863 23.2478 14.3239 22.8072 13.7656 22.2511C13.2073 21.695 12.7641 21.0344 12.4611 20.307C12.1582 19.5795 12.0015 18.7996 12 18.0116Z" fill="var(--fill-0, white)"/>
</svg>
