<svg viewBox="0 0 58.0938 26" fill="none" xmlns="http://www.w3.org/2000/svg">
<g id="SoundCloud_Symbol_0 1" clip-path="url(#clip0_0_4)">
<path id="Vector" d="M58.0876 18.2782C57.8432 22.6294 54.2123 26.0143 49.8547 25.9535H30.0662C29.1599 25.945 28.4285 25.2102 28.4243 24.3038V2.99734C28.3949 2.24895 28.8288 1.55954 29.5163 1.26245C29.5163 1.26245 31.3364 9.20913e-06 35.1702 9.20913e-06C37.5122 -0.00278173 39.8113 0.628847 41.8231 1.82784C44.9979 3.69568 47.2451 6.80801 48.0192 10.4093C48.7019 10.2161 49.4085 10.1197 50.118 10.1227C52.2683 10.1092 54.3318 10.9702 55.8346 12.5082C57.3375 14.0461 58.1507 16.1288 58.0876 18.2782ZM25.9536 4.34493C26.55 11.571 26.9837 18.162 25.9536 25.3649C25.9177 25.6907 25.6424 25.9373 25.3147 25.9373C24.9869 25.9373 24.7116 25.6907 24.6757 25.3649C23.7153 18.224 24.1336 11.5091 24.6757 4.34493C24.6487 4.09986 24.7642 3.86092 24.9731 3.7299C25.182 3.59889 25.4474 3.59889 25.6563 3.7299C25.8651 3.86092 25.9807 4.09986 25.9536 4.34493ZM21.9495 25.3726C21.8992 25.7016 21.6162 25.9446 21.2834 25.9446C20.9506 25.9446 20.6677 25.7016 20.6173 25.3726C19.9009 19.2103 19.9009 12.9857 20.6173 6.82334C20.6542 6.48111 20.9431 6.22165 21.2873 6.22165C21.6315 6.22165 21.9204 6.48111 21.9572 6.82334C22.7524 12.981 22.7498 19.2156 21.9495 25.3726ZM17.9376 6.19602C18.5881 12.818 18.8825 18.7507 17.9298 25.3572C17.9298 25.7122 17.642 26 17.287 26C16.932 26 16.6442 25.7122 16.6442 25.3572C15.7225 18.8359 16.0323 12.7328 16.6442 6.19602C16.6803 5.86612 16.959 5.6163 17.2909 5.6163C17.6227 5.6163 17.9014 5.86612 17.9376 6.19602ZM13.9179 25.3804C13.8815 25.7144 13.5994 25.9674 13.2635 25.9674C12.9275 25.9674 12.6454 25.7144 12.609 25.3804C11.8693 19.6315 11.8693 13.8115 12.609 8.06257C12.609 7.69471 12.9072 7.39647 13.2751 7.39647C13.6429 7.39647 13.9411 7.69471 13.9411 8.06257C14.7273 13.809 14.7195 19.6361 13.9179 25.3804ZM9.906 12.392C10.9206 16.8841 10.4636 20.8495 9.86727 25.4268C9.81894 25.7316 9.55621 25.9559 9.24768 25.9559C8.93914 25.9559 8.67641 25.7316 8.62807 25.4268C8.08592 20.9115 7.63671 16.8531 8.58935 12.392C8.58935 12.0284 8.88409 11.7337 9.24768 11.7337C9.61126 11.7337 9.906 12.0284 9.906 12.392ZM5.90184 11.7104C6.83124 16.311 6.52918 20.2067 5.8786 24.8227C5.80115 25.5043 4.63166 25.512 4.5697 24.8227C3.98108 20.2764 3.70225 16.2645 4.54646 11.7104C4.58354 11.3641 4.87582 11.1015 5.22415 11.1015C5.57248 11.1015 5.86476 11.3641 5.90184 11.7104ZM1.85894 13.941C2.83481 16.9925 2.50178 19.471 1.82022 22.5999C1.78453 22.9216 1.51265 23.165 1.189 23.165C0.865348 23.165 0.593473 22.9216 0.557786 22.5999C-0.0308343 19.5329 -0.27093 17.0003 0.50357 13.941C0.54065 13.5946 0.832925 13.332 1.18126 13.332C1.52959 13.332 1.82186 13.5946 1.85894 13.941Z" fill="var(--fill-0, white)"/>
</g>
<defs>
<clipPath id="clip0_0_4">
<rect width="58.0938" height="26" fill="white"/>
</clipPath>
</defs>
</svg>
