<svg viewBox="0 0 34.4724 34.4723" fill="none" xmlns="http://www.w3.org/2000/svg">
<g id="g12" transform="matrix(1,0,0,-1,0,34.4723)">
<path id="path14" d="M27.4319 19.1921C21.876 22.4916 12.7115 22.795 7.40766 21.1853C6.55591 20.9268 5.6552 21.4078 5.3972 22.2593C5.13904 23.1116 5.61934 24.0116 6.47173 24.2705C12.5602 26.1186 22.6814 25.7617 29.0775 21.9649C29.8435 21.5101 30.0948 20.5207 29.6408 19.7559C29.1864 18.9898 28.1961 18.7373 27.4319 19.1921ZM27.25 14.3051C26.8602 13.6726 26.0332 13.4741 25.4015 13.8626C20.7695 16.7098 13.7064 17.5346 8.22636 15.8712C7.51572 15.6564 6.76511 16.0571 6.54924 16.7664C6.33513 17.4771 6.73601 18.2263 7.44537 18.4424C13.7055 20.342 21.4878 19.4219 26.8079 16.1526C27.4395 15.7635 27.6384 14.9361 27.25 14.3051ZM25.1409 9.61169C24.8312 9.10372 24.1699 8.9446 23.6637 9.25422C19.6162 11.728 14.5217 12.2866 8.52198 10.9162C7.94383 10.7837 7.36761 11.1459 7.23576 11.7241C7.10334 12.302 7.46427 12.8783 8.0437 13.0102C14.6093 14.5112 20.2414 13.8652 24.7844 11.0891C25.291 10.7797 25.4505 10.118 25.1409 9.61169ZM17.2362 34.4723C7.71704 34.4723 0 26.7554 0 17.2364C0 7.71628 7.71704 4.57764e-05 17.2362 4.57764e-05C26.7556 4.57764e-05 34.4723 7.71628 34.4723 17.2364C34.4723 26.7554 26.7556 34.4723 17.2362 34.4723Z" fill="var(--fill-0, white)"/>
</g>
</svg>
