<svg viewBox="0 0 76.2914 32" fill="none" xmlns="http://www.w3.org/2000/svg">
<g id="Stripe wordmark - White 1" clip-path="url(#clip0_0_29)">
<path id="Vector" fill-rule="evenodd" clip-rule="evenodd" d="M76.2918 16.5302C76.2918 11.105 73.664 6.82422 68.6415 6.82422C63.5978 6.82422 60.5461 11.105 60.5461 16.4878C60.5461 22.8666 64.1488 26.0878 69.3197 26.0878C71.8415 26.0878 73.7488 25.5156 75.1898 24.7103V20.4719C73.7488 21.1924 72.0958 21.6374 69.9978 21.6374C67.9422 21.6374 66.1196 20.9169 65.8865 18.4163H76.2494C76.2494 18.1408 76.2918 17.0388 76.2918 16.5302ZM65.823 14.5169C65.823 12.1222 67.2852 11.1262 68.6203 11.1262C69.913 11.1262 71.2905 12.1222 71.2905 14.5169H65.823Z" fill="var(--fill-0, white)"/>
<path id="Vector_2" fill-rule="evenodd" clip-rule="evenodd" d="M52.3663 6.82422C50.2895 6.82422 48.9544 7.79905 48.2127 8.4772L47.9372 7.16329H43.2749V31.8732L48.5729 30.75L48.5941 24.7527C49.357 25.3037 50.4802 26.0878 52.3451 26.0878C56.1385 26.0878 59.5928 23.0361 59.5928 16.3183C59.5716 10.1726 56.0749 6.82422 52.3663 6.82422ZM51.0948 21.4255C49.8444 21.4255 49.1027 20.9805 48.5941 20.4295L48.5729 12.5673C49.1239 11.9527 49.8868 11.5289 51.0948 11.5289C53.0232 11.5289 54.3583 13.6904 54.3583 16.4666C54.3583 19.3063 53.0444 21.4255 51.0948 21.4255Z" fill="var(--fill-0, white)"/>
<path id="Vector_3" fill-rule="evenodd" clip-rule="evenodd" d="M35.985 5.57344L41.3042 4.42907V0.127083L35.985 1.25026V5.57344Z" fill="var(--fill-0, white)"/>
<path id="Vector_4" d="M41.3042 7.18437H35.985V25.7274H41.3042V7.18437Z" fill="var(--fill-0, white)"/>
<path id="Vector_5" fill-rule="evenodd" clip-rule="evenodd" d="M30.284 8.75211L29.9449 7.1839H25.3674V25.7269H30.6654V13.1601C31.9158 11.5283 34.035 11.825 34.6919 12.0581V7.1839C34.0138 6.92959 31.5343 6.46337 30.284 8.75211Z" fill="var(--fill-0, white)"/>
<path id="Vector_6" fill-rule="evenodd" clip-rule="evenodd" d="M19.6881 2.58398L14.5173 3.68597L14.4961 20.6608C14.4961 23.7972 16.8484 26.1071 19.9848 26.1071C21.7226 26.1071 22.9941 25.7892 23.6935 25.4078V21.1058C23.0153 21.3813 19.667 22.3561 19.667 19.2197V11.6966H23.6935V7.18266H19.667L19.6881 2.58398Z" fill="var(--fill-0, white)"/>
<path id="Vector_7" fill-rule="evenodd" clip-rule="evenodd" d="M5.36208 12.5673C5.36208 11.7408 6.04022 11.4229 7.1634 11.4229C8.774 11.4229 10.8084 11.9103 12.419 12.7792V7.79905C10.6601 7.09972 8.92234 6.82422 7.1634 6.82422C2.86142 6.82422 0.000488281 9.07058 0.000488281 12.8216C0.000488281 18.6706 8.05347 17.7381 8.05347 20.26C8.05347 21.2348 7.20579 21.5527 6.01903 21.5527C4.26009 21.5527 2.01373 20.8322 0.233601 19.8573V24.901C2.20446 25.7487 4.19651 26.1089 6.01903 26.1089C10.427 26.1089 13.4574 23.9262 13.4574 20.1328C13.4363 13.8176 5.36208 14.9408 5.36208 12.5673Z" fill="var(--fill-0, white)"/>
</g>
<defs>
<clipPath id="clip0_0_29">
<rect width="76.2914" height="32" fill="white"/>
</clipPath>
</defs>
</svg>
