<svg viewBox="0 0 23.3842 26.815" fill="none" xmlns="http://www.w3.org/2000/svg">
<g id="Group">
<path id="Vector" d="M19.8915 5.37497C18.447 4.43319 17.4045 2.92635 17.0793 1.16976C17.009 0.790226 16.9705 0.399635 16.9705 0H12.3604L12.353 18.4755C12.2755 20.5444 10.5727 22.2049 8.4852 22.2049C7.8364 22.2049 7.22549 22.0427 6.68764 21.7597C5.45417 21.1106 4.61 19.8176 4.61 18.3298C4.61 16.1929 6.34854 14.4544 8.4852 14.4544C8.88411 14.4544 9.26669 14.5202 9.62863 14.6336V9.92722C9.25411 9.87622 8.87355 9.84434 8.4852 9.84434C3.80634 9.84434 0 13.6509 0 18.3298C0 21.2005 1.43427 23.7409 3.62242 25.2771C5.00063 26.2447 6.67712 26.815 8.4852 26.815C13.1641 26.815 16.9705 23.0086 16.9705 18.3298V8.96113C18.7786 10.2589 20.9938 11.0236 23.3842 11.0236V6.4136C22.0966 6.4136 20.8973 6.03079 19.8915 5.37497Z" fill="var(--fill-0, white)"/>
</g>
</svg>
