<svg viewBox="0 0 42.8037 29.9845" fill="none" xmlns="http://www.w3.org/2000/svg">
<g id="Group">
<path id="Vector" d="M17.1339 21.4174V8.56703L28.2335 14.9766L17.1339 21.4174ZM41.8969 4.68998C41.3966 2.84532 39.9896 1.40695 38.1137 0.906736C34.7993 2.05888e-07 21.3861 0 21.3861 0C21.3861 0 8.00421 2.05888e-07 4.68998 0.906736C2.84521 1.40695 1.40695 2.84532 0.875432 4.68998C1.02944e-07 8.00421 0 14.9766 0 14.9766C0 14.9766 1.02944e-07 21.9489 0.875432 25.2946C1.40695 27.1079 2.84521 28.5775 4.68998 29.0777C8.00421 29.9845 21.3861 29.9845 21.3861 29.9845C21.3861 29.9845 34.7993 29.9845 38.1137 29.0777C39.9896 28.5775 41.3966 27.1079 41.8969 25.2946C42.8035 21.9489 42.8035 14.9766 42.8035 14.9766C42.8035 14.9766 42.8035 8.00421 41.8969 4.68998Z" fill="var(--fill-0, white)"/>
</g>
</svg>
