<svg viewBox="0 0 28 28" fill="none" xmlns="http://www.w3.org/2000/svg">
<g id="Content" clip-path="url(#clip0_0_462)">
<path id="logo" fill-rule="evenodd" clip-rule="evenodd" d="M1.198 4.15287C1.94332 1.11431 4.90864 -0.622506 7.94934 0.205121C10.6433 0.938381 14.1654 2.18637 17.9512 4.2913C21.5576 6.29652 24.2962 8.41756 26.2321 10.1642C28.5835 12.2859 28.5906 15.7219 26.2432 17.8478C24.3072 19.6008 21.5652 21.7272 17.9512 23.725C14.1676 25.8166 10.6484 27.0605 7.95618 27.7933C4.91178 28.6215 1.94205 26.8844 1.19629 23.8421C0.570409 21.2876 0 17.8912 0 14.0009C4.00681e-05 10.1067 0.571374 6.70815 1.198 4.15287ZM11.8125 5.24919C6.98001 5.24919 3.0625 9.1667 3.0625 13.9992C3.0625 18.8317 6.98001 22.7492 11.8125 22.7492C16.645 22.7492 20.5625 18.8317 20.5625 13.9992C20.5625 9.1667 16.645 5.24919 11.8125 5.24919Z" fill="var(--fill-0, #E54552)"/>
</g>
<defs>
<clipPath id="clip0_0_462">
<rect width="28" height="28" fill="white"/>
</clipPath>
</defs>
</svg>
