<svg viewBox="0 0 20 19.6881" fill="none" xmlns="http://www.w3.org/2000/svg">
<path id="Vector" d="M19.9277 14.4022C19.7898 14.0243 19.5242 13.82 19.2229 13.6565C19.1667 13.6259 19.1157 13.5953 19.0697 13.5748C18.9778 13.5289 18.8858 13.4829 18.7939 13.4369C17.8542 12.9364 17.1188 12.3134 16.6131 11.5677C16.4701 11.3583 16.3425 11.1336 16.2403 10.9038C16.1944 10.7812 16.1995 10.7097 16.2301 10.6433C16.2608 10.5922 16.3016 10.5514 16.3527 10.5156C16.5161 10.4084 16.6795 10.3011 16.7919 10.2296C16.9911 10.0968 17.1545 9.99471 17.2567 9.92321C17.6397 9.65253 17.9104 9.36653 18.0789 9.04477C18.3189 8.59534 18.3496 8.06931 18.1657 7.59434C17.9104 6.9202 17.2771 6.50652 16.5059 6.50652C16.3425 6.50652 16.1841 6.52184 16.0207 6.55759C15.9799 6.5678 15.9339 6.57802 15.893 6.58823C15.8981 6.12859 15.8879 5.64341 15.8471 5.16333C15.7041 3.48308 15.1116 2.60465 14.4988 1.90497C14.1055 1.46575 13.6459 1.09293 13.1301 0.801824C12.2006 0.270679 11.1434 0 9.99427 0C8.84516 0 7.79309 0.270679 6.86359 0.801824C6.34776 1.09293 5.88812 1.46575 5.49487 1.90497C4.88201 2.60465 4.29469 3.48819 4.14658 5.16333C4.10572 5.64341 4.09551 6.12859 4.10061 6.58823C4.05976 6.57802 4.0189 6.5678 3.97294 6.55759C3.81461 6.52184 3.65119 6.50652 3.49286 6.50652C2.72168 6.50652 2.0884 6.9253 1.83304 7.59434C1.64918 8.06931 1.67982 8.59534 1.91986 9.04477C2.0884 9.36653 2.35907 9.65253 2.74211 9.92321C2.84425 9.99471 3.00258 10.0968 3.20686 10.2296C3.31411 10.3011 3.47243 10.4033 3.63076 10.5054C3.68694 10.5412 3.7329 10.5871 3.76865 10.6433C3.79929 10.7097 3.8044 10.7812 3.75333 10.914C3.65119 11.1387 3.52861 11.3583 3.38561 11.5626C2.89022 12.2878 2.17522 12.9058 1.26614 13.4012C0.78607 13.6565 0.285569 13.8251 0.0710683 14.4022C-0.0872535 14.8363 0.0148896 15.3266 0.418355 15.7454C0.566463 15.8986 0.740106 16.0314 0.929071 16.1335C1.32232 16.348 1.74111 16.5165 2.18032 16.634C2.27225 16.6595 2.35397 16.6953 2.43057 16.7464C2.57868 16.874 2.55825 17.0681 2.75233 17.3541C2.84936 17.5022 2.97704 17.6299 3.12004 17.732C3.53372 18.018 3.99847 18.0334 4.48876 18.0538C4.93308 18.0691 5.43358 18.0896 6.01069 18.2785C6.25073 18.3551 6.49587 18.5083 6.78187 18.6871C7.47134 19.111 8.41106 19.6881 9.98917 19.6881C11.5673 19.6881 12.5121 19.1059 13.2067 18.682C13.4927 18.5083 13.7378 18.3551 13.9676 18.2785C14.5396 18.0896 15.0453 18.0691 15.4896 18.0538C15.9799 18.0334 16.4446 18.018 16.8583 17.732C17.0319 17.6095 17.1749 17.4563 17.2771 17.2724C17.4201 17.0324 17.415 16.8638 17.5478 16.7464C17.6193 16.6953 17.701 16.6595 17.7827 16.6391C18.2219 16.5217 18.6509 16.3531 19.0493 16.1335C19.2484 16.0263 19.4323 15.8833 19.5855 15.7147L19.5906 15.7096C19.989 15.301 20.086 14.821 19.9277 14.4022ZM18.5283 15.1529C17.6754 15.6228 17.1034 15.5717 16.6642 15.8577C16.2863 16.0978 16.511 16.6187 16.2403 16.8077C15.9033 17.0375 14.9125 16.7923 13.6357 17.2162C12.5785 17.5635 11.9095 18.5696 10.0096 18.5696C8.10973 18.5696 7.45602 17.5686 6.38351 17.2162C5.10673 16.7923 4.11594 17.0426 3.77886 16.8077C3.50819 16.6187 3.72779 16.0978 3.35497 15.8577C2.91065 15.5717 2.34375 15.6228 1.49086 15.1529C0.944392 14.8516 1.25593 14.6678 1.43468 14.5809C4.52962 13.0845 5.02501 10.771 5.04544 10.5973C5.07097 10.388 5.10162 10.2245 4.8718 10.0151C4.65219 9.81085 3.67161 9.2031 3.39583 9.01413C2.9464 8.69749 2.74722 8.38595 2.89533 7.99781C2.99747 7.73224 3.24772 7.63009 3.50819 7.63009C3.5899 7.63009 3.67161 7.64031 3.75333 7.65563C4.24872 7.76288 4.7288 8.00802 5.00458 8.07952C5.04033 8.08974 5.07098 8.09484 5.10673 8.09484C5.25483 8.09484 5.3059 8.01824 5.29569 7.8497C5.26505 7.30834 5.18844 6.25627 5.27526 5.27059C5.39273 3.91719 5.82683 3.24304 6.34776 2.65061C6.59801 2.36461 7.76755 1.12868 10.0096 1.12868C12.2516 1.12868 13.4212 2.35951 13.6714 2.64551C14.1924 3.23794 14.6265 3.91208 14.7439 5.26548C14.8308 6.25116 14.7541 7.30323 14.7184 7.84459C14.7082 8.02334 14.7593 8.08974 14.9074 8.08974C14.9431 8.08974 14.9738 8.08463 15.0095 8.07441C15.2853 8.00802 15.7654 7.75777 16.2608 7.65052C16.3425 7.63009 16.4242 7.62499 16.5059 7.62499C16.7664 7.62499 17.0166 7.72713 17.1188 7.9927C17.2669 8.38084 17.0677 8.69238 16.6183 9.00902C16.3476 9.19799 15.367 9.80574 15.1423 10.01C14.9125 10.2194 14.9431 10.3828 14.9686 10.5922C14.9891 10.7659 15.4845 13.0794 18.5794 14.5758C18.7633 14.6626 19.0697 14.8516 18.5283 15.1529Z" fill="var(--fill-0, #737373)"/>
</svg>
