<svg viewBox="0 0 20 20" fill="none" xmlns="http://www.w3.org/2000/svg">
<path id="Vector" fill-rule="evenodd" clip-rule="evenodd" d="M10 20C15.5228 20 20 15.5228 20 10C20 4.47715 15.5228 0 10 0C4.47715 0 0 4.47715 0 10C0 15.5228 4.47715 20 10 20ZM13.7259 14.2007C14.0106 14.3634 14.3751 14.2875 14.546 14.0164C14.7168 13.7453 14.6257 13.3983 14.3409 13.2357C11.8352 11.7718 8.7144 11.4357 5.08106 12.2272C4.76215 12.2923 4.56852 12.5959 4.63686 12.8995C4.7052 13.2031 5.02411 13.3875 5.34302 13.3224C8.66884 12.6067 11.4821 12.8995 13.7259 14.2007ZM14.6826 11.7826C15.0357 11.9778 15.4913 11.8802 15.7077 11.5441C15.9241 11.2079 15.8102 10.7742 15.4799 10.579C12.53 8.85491 8.22464 8.3778 4.76215 9.3754C4.3635 9.48383 4.1471 9.8742 4.261 10.2537C4.37489 10.6224 4.78493 10.8284 5.18357 10.72C8.21325 9.84167 12.1199 10.2754 14.6826 11.7826ZM4.72798 7.91153C7.66654 7.06574 12.735 7.22839 15.8102 8.96335C16.2316 9.21274 16.7784 9.07178 17.0175 8.65973C17.2681 8.25852 17.1314 7.73803 16.71 7.49948C13.1792 5.50428 7.57542 5.3091 4.20405 6.28501C3.73707 6.42597 3.46371 6.90309 3.61178 7.34767C3.75985 7.80309 4.261 8.05249 4.72798 7.91153Z" fill="var(--fill-0, #737373)"/>
</svg>
