<svg viewBox="0 0 20 14.0909" fill="none" xmlns="http://www.w3.org/2000/svg">
<path id="Vector" fill-rule="evenodd" clip-rule="evenodd" d="M18.9356 1.07388C19.2459 1.38618 19.4687 1.77451 19.5818 2.2C20 3.77045 20 7.04545 20 7.04545C20 7.04545 20 10.3205 19.5818 11.8909C19.4687 12.3164 19.2459 12.7047 18.9356 13.017C18.6253 13.3293 18.2384 13.5547 17.8136 13.6705C16.25 14.0909 10 14.0909 10 14.0909C10 14.0909 3.75 14.0909 2.18636 13.6705C1.76161 13.5547 1.37472 13.3293 1.06441 13.017C0.754097 12.7047 0.531255 12.3164 0.418182 11.8909C0 10.3205 0 7.04545 0 7.04545C0 7.04545 0 3.77045 0.418182 2.2C0.531255 1.77451 0.754097 1.38618 1.06441 1.07388C1.37472 0.761576 1.76161 0.536251 2.18636 0.420455C3.75 0 10 0 10 0C10 0 16.25 0 17.8136 0.420455C18.2384 0.536251 18.6253 0.761576 18.9356 1.07388ZM13.1818 7.04547L7.95451 4.0716V10.0193L13.1818 7.04547Z" fill="var(--fill-0, #737373)"/>
</svg>
