<svg viewBox="0 0 20 15.1606" fill="none" xmlns="http://www.w3.org/2000/svg">
<path id="Vector" d="M12.8155 0C12.62 0.347004 12.4445 0.705979 12.285 1.07293C10.7693 0.845583 9.22572 0.845583 7.70608 1.07293C7.55052 0.705979 7.37103 0.347004 7.1756 0C5.75167 0.243312 4.36364 0.670083 3.04741 1.27235C0.43887 5.1373 -0.26711 8.90252 0.08389 12.6159C1.61151 13.7447 3.32262 14.6062 5.1454 15.1566C5.55622 14.6062 5.91919 14.0199 6.2303 13.4096C5.63999 13.1903 5.06961 12.915 4.52319 12.596C4.66677 12.4922 4.80637 12.3846 4.94198 12.2809C8.14482 13.7885 11.8542 13.7885 15.061 12.2809C15.1966 12.3925 15.3362 12.5002 15.4798 12.596C14.9334 12.919 14.363 13.1903 13.7687 13.4136C14.0798 14.0239 14.4428 14.6102 14.8536 15.1606C16.6764 14.6102 18.3875 13.7526 19.9152 12.6239C20.3299 8.31619 19.2052 4.58288 16.9436 1.27635C15.6314 0.674079 14.2434 0.247292 12.8194 0.00797511L12.8155 0ZM6.67702 10.3304C5.69185 10.3304 4.87418 9.43699 4.87418 8.33216C4.87418 7.22733 5.65993 6.32989 6.67304 6.32989C7.68615 6.32989 8.49182 7.23131 8.47587 8.33216C8.45992 9.43301 7.68215 10.3304 6.67702 10.3304ZM13.322 10.3304C12.3328 10.3304 11.5232 9.43699 11.5232 8.33216C11.5232 7.22733 12.3089 6.32989 13.322 6.32989C14.3351 6.32989 15.1368 7.23131 15.1208 8.33216C15.1049 9.43301 14.3271 10.3304 13.322 10.3304Z" fill="var(--fill-0, #737373)"/>
</svg>
